<?xml version="1.0" standalone="no"?><!DOCTYPE svg PUBLIC "-//W3C//DTD SVG 1.1//EN" "http://www.w3.org/Graphics/SVG/1.1/DTD/svg11.dtd"><svg t="1707553364021" class="icon" viewBox="0 0 1024 1024" version="1.1" xmlns="http://www.w3.org/2000/svg" p-id="23258" xmlns:xlink="http://www.w3.org/1999/xlink" width="200" height="200"><path d="M872.06 377.73L554.19 94.54c-25.02-22.29-60.81-22.3-85.84-0.02L151.94 376.21V884.8c0 41.43 30.54 75.02 68.2 75.02h583.72c37.67 0 68.2-33.59 68.2-75.02V377.73z" fill="#E1F5FF" p-id="23259"></path><path d="M627.94 959.81H396.06V707.8c0-64.03 51.91-115.94 115.94-115.94s115.94 51.91 115.94 115.94v252.01z" fill="#FFD600" p-id="23260"></path><path d="M849.6 521.31L554.19 258.12c-24.46-21.79-61.37-21.8-85.84-0.02L174.38 519.8C131.64 557.87 64 527.52 64 470.29v-0.06a66.3 66.3 0 0 1 22.21-49.52L468.35 80.52c24.47-21.78 61.38-21.78 85.84 0.02L937.8 422.3a66.3 66.3 0 0 1 22.2 49.5c0 57.25-67.66 87.59-110.4 49.51z" fill="#313FA0" p-id="23261"></path></svg>